<?xml version="1.0" encoding="UTF-8"?>
<svg version="1.1" xmlns="http://www.w3.org/2000/svg" viewBox="0 0 14 22">
 <g>
  <rect width="14" height="22" x="0" y="0" opacity="0"/>
  <path d="M6.398 21.438C6.594 21.559 6.789 21.598 6.984 21.598C7.277 21.598 7.559 21.48 7.773 21.258L13.027 15.938C13.262 15.695 13.379 15.422 13.379 15.109C13.379 14.805 13.262 14.531 13.027 14.297L9.117 10.43L13.027 6.563C13.262 6.328 13.379 6.055 13.379 5.742C13.379 5.438 13.262 5.156 13.027 4.922L7.773 -0.398C7.559 -0.621 7.277 -0.738 6.984 -0.738C6.789 -0.738 6.594 -0.68 6.398 -0.563C6.008 -0.328 5.813 0.02 5.813 0.48V7.867L1.984 4.125C1.73 3.871 1.418 3.754 1.066 3.773C0.723 3.793 0.43 3.93 0.195 4.195C-0.039 4.469 -0.156 4.773 -0.137 5.117C-0.117 5.461 0.02 5.754 0.273 5.988L4.82 10.43L0.273 14.871C0.02 15.105 -0.117 15.398 -0.137 15.742C-0.156 16.086 -0.039 16.398 0.195 16.664C0.43 16.93 0.723 17.066 1.066 17.086C1.418 17.105 1.73 16.988 1.984 16.734L5.813 12.992V20.391C5.813 20.84 6.008 21.203 6.398 21.438ZM8.203 3.371L10.195 5.391L8.203 7.359ZM8.203 13.5L10.195 15.469L8.203 17.488Z" fill="#8f96a3" fill-opacity="0.78"/>
 </g>
</svg>
